# xmcd
#
# Track frame offsets: 
#        150
#        13397
#        25567
#        36075
#        54586
#        66440
#        76765
#        86985
#        101037
#        113766
#        123521
#        135012
#        153943
#        168183
#
# Disc length: 2405 seconds
#
# Revision: 3
# Processed by: cddbd v1.5.1PL2 Copyright (c) Steve Scherf et al.
# Submitted via: ExactAudioCopy v0.95b1
#
DISCID=aa09630e
DTITLE=Martí Brom - Heartache Numbers
DYEAR=2005
DGENRE=Country
TTITLE0=1 Way Ticket to the Blues
TTITLE1=Alone at a Table for 2
TTITLE2=3 Hearts Later
TTITLE3=4 Walls
TTITLE4=5 Fingers to Spare
TTITLE5=Whiskey 6 Years old
TTITLE6=7 lonely Days
TTITLE7=8 Weeks in a Barroom 
TTITLE8=Apartment #9
TTITLE9=10 Minutes Till Heartaches
TTITLE10=A-11
TTITLE11=The 12th of Never
TTITLE12=13 Steps Away
TTITLE13=Heartaches by the Numbers
EXTD=
EXTT0=
EXTT1=
EXTT2=
EXTT3=
EXTT4=
EXTT5=
EXTT6=
EXTT7=
EXTT8=
EXTT9=
EXTT10=
EXTT11=
EXTT12=
EXTT13=
PLAYORDER=
